# xmcd
#
# Track frame offsets:
#	150
#	13550
#	28628
#	42010
#	54787
#	74315
#	89454
#	102667
#	116623
#	129894
#	143414
#	156366
#	173001
#	186429
#
# Disc length: 2646 seconds
#
# Revision: 1
# Processed by: cddbd v1.5.2PL0 Copyright (c) Steve Scherf et al.
# Submitted via: audiograbber 1.83.01
#
DISCID=b10a540e
DTITLE=WALDICK SORIANO - AO VIVO
DYEAR=1900
DGENRE=
TTITLE0=O MOÇO POBRE
TTITLE1=FUJO DE TI
TTITLE2=VESTIDA DE BRANCO
TTITLE3=QUEM ÉS TU
TTITLE4=A SAUDADE QUE VOCÊ DEIXOU AQUI-EU VOU TER SEMPRE VOCÊ
TTITLE5=PAIXÃO DE UM HOMEM
TTITLE6=TORTURA DE AMOR
TTITLE7=A CARTA
TTITLE8=VOCÊ MUDOU DEMAIS
TTITLE9=NOSTALGIA
TTITLE10=DAMA DE VERMELHO
TTITLE11=PERFUME DE GARDÊNIA
TTITLE12=EU TAMBÉM SOU GENTE
TTITLE13=EU NÃO SOU CACHORRO NÃO
EXTD=
EXTT0=
EXTT1=
EXTT2=
EXTT3=
EXTT4=
EXTT5=
EXTT6=
EXTT7=
EXTT8=
EXTT9=
EXTT10=
EXTT11=
EXTT12=
EXTT13=
PLAYORDER=
